<svg width="2946" height="600" viewBox="0 0 2946 600" fill="none" xmlns="http://www.w3.org/2000/svg">
<path d="M106.08 497.92C98.2309 505.769 85.4483 505.812 78.1423 497.455C56.6872 472.913 39.3449 445.004 26.8361 414.805C11.7597 378.407 4 339.397 4 300C4 260.603 11.7597 221.593 26.8362 185.195C39.3449 154.996 56.6872 127.087 78.1424 102.545C85.4483 94.1885 98.2309 94.2308 106.08 102.08V102.08C113.929 109.929 113.862 122.607 106.643 131.039C88.874 151.795 74.4619 175.257 63.9738 200.578C50.9174 232.099 44.1975 265.882 44.1974 300C44.1974 334.118 50.9174 367.901 63.9737 399.422C74.4619 424.743 88.8739 448.205 106.643 468.961C113.862 477.393 113.929 490.071 106.08 497.92V497.92Z" fill="#EC008C"/>
<path d="M499.994 499.994C506.698 506.698 517.607 506.729 523.916 499.653C546.268 474.585 564.28 445.91 577.164 414.805C592.24 378.407 600 339.397 600 300C600 260.603 592.24 221.593 577.164 185.195C564.28 154.09 546.268 125.415 523.916 100.347C517.607 93.2706 506.698 93.3023 499.994 100.006V100.006C493.29 106.709 493.337 117.543 499.594 124.666C518.786 146.513 534.288 171.394 545.446 198.333C558.797 230.565 565.669 265.112 565.669 300C565.669 334.888 558.797 369.435 545.446 401.667C534.288 428.605 518.786 453.487 499.594 475.334C493.337 482.457 493.29 493.29 499.994 499.994V499.994Z" fill="#EC008C"/>
<path d="M448.636 449.636C455.424 456.424 466.487 456.465 472.741 449.181C488.503 430.824 501.281 410.056 510.568 387.634C522.077 359.851 528 330.073 528 300C528 269.927 522.077 240.149 510.568 212.365C501.281 189.944 488.503 169.176 472.741 150.819C466.487 143.535 455.424 143.576 448.636 150.364V150.364C441.848 157.152 441.916 168.112 448.07 175.48C460.658 190.55 470.91 207.467 478.449 225.67C488.21 249.235 493.234 274.493 493.234 300C493.234 325.507 488.21 350.765 478.449 374.33C470.91 392.533 460.658 409.45 448.07 424.52C441.916 431.888 441.848 442.848 448.636 449.636V449.636Z" fill="#FFF500"/>
<path d="M155.362 449.638C148.575 456.425 137.514 456.466 131.261 449.183C115.498 430.826 102.719 410.057 93.4316 387.634C81.9233 359.851 76 330.073 76 300C76 269.927 81.9233 240.149 93.4316 212.365C102.719 189.943 115.498 169.174 131.261 150.817C137.514 143.534 148.575 143.575 155.362 150.362V150.362C162.15 157.15 162.082 168.108 155.928 175.475C143.339 190.545 133.087 207.464 125.546 225.668C115.785 249.234 110.761 274.492 110.761 300C110.761 325.508 115.785 350.766 125.546 374.332C133.087 392.536 143.339 409.455 155.928 424.525C162.082 431.892 162.15 442.85 155.362 449.638V449.638Z" fill="#FFF500"/>
<path d="M210.672 409.328C203.963 416.037 193.009 416.086 187 408.743C176.328 395.701 167.604 381.14 161.131 365.513C152.462 344.584 148 322.153 148 299.5C148 276.847 152.462 254.416 161.131 233.487C167.604 217.86 176.328 203.299 187 190.257C193.009 182.914 203.963 182.963 210.672 189.672V189.672C217.382 196.382 217.283 207.202 211.458 214.692C203.877 224.439 197.621 235.18 192.876 246.636C185.933 263.396 182.36 281.359 182.36 299.5C182.36 317.641 185.933 335.604 192.876 352.364C197.621 363.82 203.877 374.561 211.458 384.308C217.283 391.798 217.382 402.618 210.672 409.328V409.328Z" fill="#00AEEF"/>
<path d="M393.328 409.328C400.037 416.037 410.991 416.086 417 408.743C427.672 395.701 436.396 381.14 442.869 365.513C451.538 344.584 456 322.153 456 299.5C456 276.847 451.538 254.416 442.869 233.487C436.396 217.86 427.672 203.299 417 190.257C410.991 182.914 400.037 182.963 393.328 189.672V189.672C386.618 196.382 386.717 207.202 392.542 214.692C400.123 224.439 406.379 235.18 411.124 246.636C418.067 263.396 421.64 281.359 421.64 299.5C421.64 317.641 418.067 335.604 411.124 352.364C406.379 363.82 400.123 374.561 392.542 384.308C386.717 391.798 386.618 402.618 393.328 409.328V409.328Z" fill="#00AEEF"/>
<path d="M271.067 376.933C263.569 384.431 251.274 384.502 244.981 375.968C238.842 367.642 233.72 358.584 229.743 348.983C223.311 333.454 220 316.809 220 300C220 283.191 223.311 266.546 229.743 251.017C233.72 241.416 238.842 232.358 244.981 224.032C251.274 215.498 263.569 215.569 271.067 223.067V223.067C278.565 230.565 278.352 242.644 272.619 251.565C269.744 256.04 267.266 260.774 265.22 265.712C260.718 276.582 258.4 288.234 258.4 300C258.4 311.766 260.718 323.418 265.22 334.288C267.266 339.226 269.744 343.96 272.619 348.435C278.352 357.356 278.565 369.435 271.067 376.933V376.933Z" fill="#222222"/>
<path d="M332.933 376.933C340.431 384.431 352.726 384.502 359.019 375.968C365.158 367.642 370.28 358.584 374.257 348.983C380.689 333.454 384 316.809 384 300C384 283.191 380.689 266.546 374.257 251.017C370.28 241.416 365.158 232.358 359.019 224.032C352.726 215.498 340.431 215.569 332.933 223.067V223.067C325.435 230.565 325.648 242.644 331.381 251.565C334.256 256.04 336.734 260.774 338.78 265.712C343.282 276.582 345.6 288.234 345.6 300C345.6 311.766 343.282 323.418 338.78 334.288C336.734 339.226 334.256 343.96 331.381 348.435C325.648 357.356 325.435 369.435 332.933 376.933V376.933Z" fill="#222222"/>
<rect x="359.2" y="358.313" width="32.4451" height="160.212" transform="rotate(146.966 359.2 358.313)" fill="#222222"/>
<path d="M741.6 203.84H898.4C902.693 203.84 906.427 205.427 909.6 208.6C912.773 211.773 914.36 215.507 914.36 219.8V232.12C914.36 236.413 912.773 240.147 909.6 243.32C906.427 246.493 902.693 248.08 898.4 248.08H741.6C737.307 248.08 733.573 246.493 730.4 243.32C727.227 240.147 725.64 236.413 725.64 232.12V219.8C725.64 215.507 727.227 211.773 730.4 208.6C733.573 205.427 737.307 203.84 741.6 203.84ZM722 406.56C717.707 406.56 713.973 404.973 710.8 401.8C707.627 398.627 706.04 394.893 706.04 390.6V378.28C706.04 373.987 707.627 370.253 710.8 367.08C713.973 363.907 717.707 362.32 722 362.32H918C922.293 362.32 926.027 363.907 929.2 367.08C932.373 370.253 933.96 373.987 933.96 378.28V390.6C933.96 394.893 932.373 398.627 929.2 401.8C926.027 404.973 922.293 406.56 918 406.56H722ZM979.88 316.68L977.92 306.04C977.173 301.747 978.107 297.92 980.72 294.56C983.333 291.013 986.787 288.773 991.08 287.84C1024.87 281.68 1057.53 271.32 1089.08 256.76C1120.81 242.013 1148.63 224.373 1172.52 203.84C1175.88 201.04 1179.71 199.733 1184 199.92C1188.29 200.107 1191.84 201.88 1194.64 205.24L1201.64 213.08C1204.63 216.44 1205.93 220.36 1205.56 224.84C1205.19 229.133 1203.32 232.773 1199.96 235.76C1180.73 252.373 1158.89 267.4 1134.44 280.84C1132.95 281.773 1132.2 282.987 1132.2 284.48V404.88C1132.2 409.173 1130.61 412.813 1127.44 415.8C1124.27 418.973 1120.53 420.56 1116.24 420.56H1099.16C1094.87 420.56 1091.13 418.973 1087.96 415.8C1084.97 412.813 1083.48 409.173 1083.48 404.88V307.44C1083.48 306.88 1083.2 306.413 1082.64 306.04C1082.27 305.667 1081.8 305.573 1081.24 305.76C1053.8 316.587 1026.17 324.52 998.36 329.56C994.067 330.307 990.053 329.467 986.32 327.04C982.773 324.427 980.627 320.973 979.88 316.68ZM1262.68 406.56L1257.92 395.92C1256.24 392 1256.24 388.08 1257.92 384.16C1259.6 380.24 1262.4 377.44 1266.32 375.76C1295.63 363.627 1321.29 349.067 1343.32 332.08C1344.44 330.96 1344.53 330.027 1343.6 329.28C1327.55 317.333 1315.69 308.56 1308.04 302.96C1304.49 300.533 1302.44 297.173 1301.88 292.88C1301.32 288.4 1302.35 284.387 1304.96 280.84L1312.8 270.2C1315.41 266.653 1318.96 264.6 1323.44 264.04C1327.92 263.48 1331.93 264.507 1335.48 267.12C1338.47 269.36 1344.72 274.12 1354.24 281.4C1363.95 288.493 1371.41 294 1376.64 297.92C1377.95 298.853 1379.07 298.76 1380 297.64C1396.05 278.973 1408 259.373 1415.84 238.84C1416.21 237.347 1415.65 236.6 1414.16 236.6H1287.32C1283.03 236.6 1279.29 235.013 1276.12 231.84C1272.95 228.667 1271.36 224.933 1271.36 220.64V211.96C1271.36 207.667 1272.95 203.933 1276.12 200.76C1279.29 197.587 1283.03 196 1287.32 196H1448.6C1452.89 196 1456.53 197.587 1459.52 200.76C1462.69 203.933 1464.28 207.667 1464.28 211.96V220.64C1464.28 232.213 1462.6 242.48 1459.24 251.44C1449.16 278.88 1434.88 303.52 1416.4 325.36C1415.47 326.667 1415.65 327.787 1416.96 328.72C1421.07 331.893 1436.93 344.493 1464.56 366.52C1467.92 369.32 1469.79 372.867 1470.16 377.16C1470.72 381.453 1469.6 385.28 1466.8 388.64L1458.4 398.72C1455.6 402.08 1451.96 404.04 1447.48 404.6C1443.19 404.973 1439.36 403.76 1436 400.96C1424.99 392 1407.53 378.373 1383.64 360.08C1382.71 359.333 1381.59 359.427 1380.28 360.36C1354.52 380.893 1322.51 399.093 1284.24 414.96C1280.13 416.64 1275.93 416.64 1271.64 414.96C1267.53 413.467 1264.55 410.667 1262.68 406.56ZM1536.8 242.48C1532.51 242.48 1528.77 240.893 1525.6 237.72C1522.43 234.547 1520.84 230.813 1520.84 226.52V216.44C1520.84 212.147 1522.43 208.507 1525.6 205.52C1528.77 202.347 1532.51 200.76 1536.8 200.76H1733.36C1737.65 200.76 1741.39 202.347 1744.56 205.52C1747.73 208.507 1749.32 212.147 1749.32 216.44V242.48C1740.73 266.747 1728.23 288.213 1711.8 306.88C1695.56 325.36 1674.19 342.067 1647.68 357C1646.37 357.747 1646.09 358.68 1646.84 359.8C1648.33 362.04 1651.13 366.24 1655.24 372.4C1659.53 378.373 1662.8 383.04 1665.04 386.4C1667.47 389.947 1668.21 393.867 1667.28 398.16C1666.35 402.267 1664.11 405.44 1660.56 407.68L1647.12 416.08C1643.39 418.507 1639.28 419.16 1634.8 418.04C1630.51 417.107 1627.05 414.773 1624.44 411.04C1602.23 378.373 1580.85 348.04 1560.32 320.04C1557.71 316.493 1556.77 312.667 1557.52 308.56C1558.27 304.267 1560.41 300.907 1563.96 298.48L1576.84 289.8C1580.57 287.373 1584.59 286.533 1588.88 287.28C1593.36 288.027 1596.91 290.173 1599.52 293.72C1605.68 302.12 1611.56 310.24 1617.16 318.08C1618.09 319.387 1619.31 319.667 1620.8 318.92C1638.35 309.213 1653.93 297.827 1667.56 284.76C1681.19 271.507 1691.45 258.067 1698.36 244.44C1698.55 244.067 1698.45 243.693 1698.08 243.32C1697.89 242.76 1697.52 242.48 1696.96 242.48H1536.8ZM1782.08 276.92L1778.72 269.64C1776.85 265.533 1776.67 261.333 1778.16 257.04C1779.65 252.747 1782.36 249.573 1786.28 247.52C1817.08 230.72 1844.61 211.12 1868.88 188.72C1876.53 181.627 1885.59 178.08 1896.04 178.08H1921.24C1931.69 178.08 1940.84 181.72 1948.68 189C1972.95 211.4 2000.48 231 2031.28 247.8C2035.2 249.853 2037.81 253.027 2039.12 257.32C2040.61 261.427 2040.43 265.533 2038.56 269.64L2035.2 276.92C2033.33 280.84 2030.35 283.547 2026.24 285.04C2022.32 286.347 2018.49 286.067 2014.76 284.2C1975.19 263.293 1940.37 237.813 1910.32 207.76C1909.2 206.64 1908.08 206.64 1906.96 207.76C1876.91 237.813 1842.09 263.293 1802.52 284.2C1798.79 286.067 1794.87 286.347 1790.76 285.04C1786.84 283.547 1783.95 280.84 1782.08 276.92ZM1839.2 286.72C1843.49 286.72 1847.23 288.307 1850.4 291.48C1853.57 294.653 1855.16 298.387 1855.16 302.68V387.8C1855.16 389.293 1856 390.04 1857.68 390.04H1891C1892.68 390.04 1893.52 389.293 1893.52 387.8V254.52C1893.52 250.227 1895.11 246.493 1898.28 243.32C1901.45 240.147 1905.19 238.56 1909.48 238.56H1922.08C1926.37 238.56 1930.11 240.147 1933.28 243.32C1936.45 246.493 1938.04 250.227 1938.04 254.52V299.6C1938.04 301.093 1938.88 301.84 1940.56 301.84H2006.36C2010.65 301.84 2014.39 303.427 2017.56 306.6C2020.73 309.773 2022.32 313.507 2022.32 317.8V322.56C2022.32 326.853 2020.73 330.587 2017.56 333.76C2014.39 336.747 2010.65 338.24 2006.36 338.24H1940.56C1938.88 338.24 1938.04 339.08 1938.04 340.76V387.8C1938.04 389.293 1938.88 390.04 1940.56 390.04H2020.08C2024.37 390.04 2028.11 391.627 2031.28 394.8C2034.45 397.973 2036.04 401.707 2036.04 406V411.88C2036.04 416.173 2034.45 419.907 2031.28 423.08C2028.11 426.253 2024.37 427.84 2020.08 427.84H1797.2C1792.91 427.84 1789.17 426.253 1786 423.08C1782.83 419.907 1781.24 416.173 1781.24 411.88V406C1781.24 401.707 1782.83 397.973 1786 394.8C1789.17 391.627 1792.91 390.04 1797.2 390.04H1809.52C1811.01 390.04 1811.76 389.293 1811.76 387.8V302.68C1811.76 298.387 1813.35 294.653 1816.52 291.48C1819.69 288.307 1823.43 286.72 1827.72 286.72H1839.2ZM2066.84 220.36C2062.55 220.36 2058.81 218.773 2055.64 215.6C2052.65 212.427 2051.16 208.693 2051.16 204.4V199.64C2051.16 195.347 2052.65 191.707 2055.64 188.72C2058.81 185.547 2062.55 183.96 2066.84 183.96H2289.16C2293.45 183.96 2297.09 185.547 2300.08 188.72C2303.25 191.707 2304.84 195.347 2304.84 199.64V204.4C2304.84 208.693 2303.25 212.427 2300.08 215.6C2297.09 218.773 2293.45 220.36 2289.16 220.36H2200.12C2198.63 220.36 2197.88 221.107 2197.88 222.6V235.76C2197.88 237.253 2198.63 238 2200.12 238H2234.56C2238.85 238 2242.59 239.587 2245.76 242.76C2248.93 245.933 2250.52 249.667 2250.52 253.96V357.84C2250.52 362.133 2248.93 365.867 2245.76 369.04C2242.59 372.213 2238.85 373.8 2234.56 373.8H2141.32H2121.44C2117.15 373.8 2113.41 372.213 2110.24 369.04C2107.07 365.867 2105.48 362.133 2105.48 357.84V253.96C2105.48 249.667 2107.07 245.933 2110.24 242.76C2113.41 239.587 2117.15 238 2121.44 238H2155.88C2157.37 238 2158.12 237.253 2158.12 235.76V222.6C2158.12 221.107 2157.37 220.36 2155.88 220.36H2066.84ZM2158.12 340.2V321.44C2158.12 319.76 2157.37 318.92 2155.88 318.92H2143.84C2142.16 318.92 2141.32 319.76 2141.32 321.44V340.2C2141.32 341.693 2142.16 342.44 2143.84 342.44H2155.88C2157.37 342.44 2158.12 341.693 2158.12 340.2ZM2158.12 289.52V271.6C2158.12 270.107 2157.37 269.36 2155.88 269.36H2143.84C2142.16 269.36 2141.32 270.107 2141.32 271.6V289.52C2141.32 291.2 2142.16 292.04 2143.84 292.04H2155.88C2157.37 292.04 2158.12 291.2 2158.12 289.52ZM2197.88 271.6V289.52C2197.88 291.2 2198.63 292.04 2200.12 292.04H2212.16C2213.84 292.04 2214.68 291.2 2214.68 289.52V271.6C2214.68 270.107 2213.84 269.36 2212.16 269.36H2200.12C2198.63 269.36 2197.88 270.107 2197.88 271.6ZM2197.88 321.44V340.2C2197.88 341.693 2198.63 342.44 2200.12 342.44H2212.16C2213.84 342.44 2214.68 341.693 2214.68 340.2V321.44C2214.68 319.76 2213.84 318.92 2212.16 318.92H2200.12C2198.63 318.92 2197.88 319.76 2197.88 321.44ZM2080.56 246.4C2084.85 246.4 2088.59 247.987 2091.76 251.16C2094.93 254.333 2096.52 258.067 2096.52 262.36V382.48C2096.52 383.973 2097.36 384.72 2099.04 384.72H2256.96C2258.64 384.72 2259.48 383.973 2259.48 382.48V262.36C2259.48 258.067 2261.07 254.333 2264.24 251.16C2267.41 247.987 2271.15 246.4 2275.44 246.4H2283.84C2288.13 246.4 2291.87 247.987 2295.04 251.16C2298.21 254.333 2299.8 258.067 2299.8 262.36V414.4C2299.8 418.693 2298.21 422.427 2295.04 425.6C2291.87 428.773 2288.13 430.36 2283.84 430.36H2270.12C2267.13 430.36 2264.61 429.333 2262.56 427.28C2260.51 425.227 2259.48 422.707 2259.48 419.72C2259.48 418.6 2258.92 418.04 2257.8 418.04H2098.2C2097.08 418.04 2096.52 418.6 2096.52 419.72C2096.52 422.707 2095.49 425.227 2093.44 427.28C2091.39 429.333 2088.87 430.36 2085.88 430.36H2072.16C2067.87 430.36 2064.13 428.773 2060.96 425.6C2057.79 422.427 2056.2 418.693 2056.2 414.4V262.36C2056.2 258.067 2057.79 254.333 2060.96 251.16C2064.13 247.987 2067.87 246.4 2072.16 246.4H2080.56ZM2465 434C2460.71 434 2456.97 432.413 2453.8 429.24C2450.63 426.067 2449.04 422.333 2449.04 418.04V202.44C2449.04 198.147 2450.63 194.413 2453.8 191.24C2456.97 188.067 2460.71 186.48 2465 186.48H2560.2C2564.49 186.48 2568.23 188.067 2571.4 191.24C2574.57 194.413 2576.16 198.147 2576.16 202.44V345.24C2576.16 353.827 2575.97 360.64 2575.6 365.68C2575.41 370.533 2574.67 375.107 2573.36 379.4C2572.05 383.507 2570.56 386.493 2568.88 388.36C2567.2 390.227 2564.4 391.907 2560.48 393.4C2556.75 394.707 2552.73 395.547 2548.44 395.92C2544.15 396.107 2538.17 396.2 2530.52 396.2H2525.2C2520.72 396.013 2516.8 394.333 2513.44 391.16C2510.27 387.987 2508.49 384.16 2508.12 379.68L2507.56 372.68C2507.37 368.573 2508.68 365.027 2511.48 362.04C2514.28 359.053 2517.83 357.56 2522.12 357.56C2527.72 357.56 2530.99 357.093 2531.92 356.16C2533.04 355.04 2533.6 351.68 2533.6 346.08V225.12C2533.6 223.627 2532.85 222.88 2531.36 222.88H2495.24C2493.56 222.88 2492.72 223.627 2492.72 225.12V418.04C2492.72 422.333 2491.13 426.067 2487.96 429.24C2484.79 432.413 2481.05 434 2476.76 434H2465ZM2339.28 411.04C2334.99 411.04 2331.25 409.453 2328.08 406.28C2324.91 403.107 2323.32 399.373 2323.32 395.08V211.4C2323.32 206.92 2324.81 203 2327.8 199.64C2330.79 196.28 2334.52 194.32 2339 193.76C2364.2 190.587 2388.75 186.107 2412.64 180.32C2417.12 179.387 2421.32 179.947 2425.24 182C2429.16 184.053 2431.77 187.227 2433.08 191.52L2434.76 197.68C2436.07 201.787 2435.6 205.707 2433.36 209.44C2431.31 213.173 2428.23 215.507 2424.12 216.44C2402.65 221.48 2384.36 225.12 2369.24 227.36C2367.75 227.733 2367 228.573 2367 229.88V265.72C2367 267.213 2367.84 267.96 2369.52 267.96H2417.96C2422.25 267.96 2425.99 269.547 2429.16 272.72C2432.33 275.893 2433.92 279.627 2433.92 283.92V288.68C2433.92 292.973 2432.33 296.707 2429.16 299.88C2425.99 302.867 2422.25 304.36 2417.96 304.36H2369.52C2367.84 304.36 2367 305.2 2367 306.88V348.88C2367 350.373 2367.84 351.12 2369.52 351.12H2420.76C2425.05 351.12 2428.79 352.707 2431.96 355.88C2435.13 359.053 2436.72 362.787 2436.72 367.08V371.56C2436.72 375.853 2435.13 379.587 2431.96 382.76C2428.79 385.933 2425.05 387.52 2420.76 387.52H2369.52C2367.84 387.52 2367 388.36 2367 390.04V395.08C2367 399.373 2365.41 403.107 2362.24 406.28C2359.07 409.453 2355.33 411.04 2351.04 411.04H2339.28ZM2771.32 370.16C2767.03 370.16 2763.29 368.573 2760.12 365.4C2756.95 362.227 2755.36 358.493 2755.36 354.2V207.76C2755.36 203.467 2756.95 199.733 2760.12 196.56C2763.29 193.387 2767.03 191.8 2771.32 191.8H2777.2C2781.49 191.8 2785.23 193.387 2788.4 196.56C2791.57 199.733 2793.16 203.467 2793.16 207.76V354.2C2793.16 358.493 2791.57 362.227 2788.4 365.4C2785.23 368.573 2781.49 370.16 2777.2 370.16H2771.32ZM2832.36 180.6C2836.65 180.6 2840.29 182.187 2843.28 185.36C2846.45 188.533 2848.04 192.267 2848.04 196.56V381.36C2848.04 389.947 2847.85 396.667 2847.48 401.52C2847.29 406.373 2846.64 410.947 2845.52 415.24C2844.4 419.533 2843.09 422.52 2841.6 424.2C2840.11 426.067 2837.49 427.653 2833.76 428.96C2830.21 430.453 2826.48 431.293 2822.56 431.48C2818.64 431.853 2813.13 432.04 2806.04 432.04C2798.76 432.04 2791.57 431.853 2784.48 431.48C2780 431.293 2776.17 429.613 2773 426.44C2770.01 423.267 2768.33 419.44 2767.96 414.96L2767.4 408.52C2767.21 404.413 2768.52 400.867 2771.32 397.88C2774.12 394.893 2777.67 393.493 2781.96 393.68C2792.41 394.053 2797.73 394.24 2797.92 394.24C2802.59 394.24 2805.29 393.773 2806.04 392.84C2806.97 391.72 2807.44 388.36 2807.44 382.76V196.56C2807.44 192.267 2809.03 188.533 2812.2 185.36C2815.37 182.187 2819.11 180.6 2823.4 180.6H2832.36ZM2729.04 183.96C2733.33 183.96 2737.07 185.547 2740.24 188.72C2743.41 191.707 2745 195.347 2745 199.64V256.76C2745 261.053 2743.41 264.787 2740.24 267.96C2737.07 271.133 2733.33 272.72 2729.04 272.72H2703.84C2702.16 272.72 2701.32 273.56 2701.32 275.24V290.08C2701.32 291.573 2702.16 292.32 2703.84 292.32H2729.04C2733.33 292.32 2737.07 293.907 2740.24 297.08C2743.41 300.253 2745 303.987 2745 308.28V364.28C2745 374.36 2744.81 382.293 2744.44 388.08C2744.07 393.867 2743.51 398.813 2742.76 402.92C2742.01 406.84 2740.61 409.547 2738.56 411.04C2736.51 412.533 2734.27 413.56 2731.84 414.12C2729.6 414.68 2726.24 414.96 2721.76 414.96C2716.91 414.96 2710.56 414.68 2702.72 414.12C2701.23 414.12 2700.48 414.773 2700.48 416.08V420C2700.48 424.293 2698.89 428.027 2695.72 431.2C2692.55 434.373 2688.81 435.96 2684.52 435.96H2676.4C2672.11 435.96 2668.37 434.373 2665.2 431.2C2662.03 428.027 2660.44 424.293 2660.44 420V331.24C2660.44 329.56 2659.69 328.72 2658.2 328.72H2654.56C2652.88 328.72 2652.04 329.56 2652.04 331.24V399.56C2652.04 403.853 2650.45 407.587 2647.28 410.76C2644.29 413.933 2640.65 415.52 2636.36 415.52H2626C2624.51 415.52 2623.39 416.173 2622.64 417.48C2621.33 420.467 2619 421.96 2615.64 421.96C2612.28 421.96 2609.76 420.56 2608.08 417.76L2599.12 402.64C2593.89 394.053 2593.15 384.627 2596.88 374.36C2604.72 351.587 2608.64 313.6 2608.64 260.4V199.64C2608.64 195.347 2610.23 191.707 2613.4 188.72C2616.57 185.547 2620.31 183.96 2624.6 183.96H2729.04ZM2662.4 290.08V275.24C2662.4 273.56 2661.56 272.72 2659.88 272.72H2650.08C2648.4 272.72 2647.56 273.56 2647.56 275.24V290.08C2647.56 291.573 2648.4 292.32 2650.08 292.32H2659.88C2661.56 292.32 2662.4 291.573 2662.4 290.08ZM2702.72 328.72C2701.23 328.72 2700.48 329.56 2700.48 331.24V374.64C2700.48 375.947 2701.23 376.787 2702.72 377.16C2703.84 377.347 2704.96 377.44 2706.08 377.44C2707.95 377.44 2709.16 376.88 2709.72 375.76C2710.28 374.64 2710.56 371.467 2710.56 366.24V331.24C2710.56 329.56 2709.72 328.72 2708.04 328.72H2702.72ZM2703.84 239.4V220.64C2703.84 218.96 2703 218.12 2701.32 218.12H2653.44C2651.76 218.12 2650.92 218.96 2650.92 220.64V239.4C2650.92 240.893 2651.76 241.64 2653.44 241.64H2701.32C2703 241.64 2703.84 240.893 2703.84 239.4Z" fill="#222222"/>
</svg>
