<svg width="604" height="600" viewBox="0 0 604 600" fill="none" xmlns="http://www.w3.org/2000/svg">
<path d="M106.08 497.92C98.2309 505.769 85.4483 505.812 78.1423 497.455C56.6872 472.913 39.3449 445.004 26.8361 414.805C11.7597 378.407 4 339.397 4 300C4 260.603 11.7597 221.593 26.8362 185.195C39.3449 154.996 56.6872 127.087 78.1424 102.545C85.4483 94.1885 98.2309 94.2308 106.08 102.08V102.08C113.929 109.929 113.862 122.607 106.643 131.039C88.874 151.795 74.4619 175.257 63.9738 200.578C50.9174 232.099 44.1975 265.882 44.1974 300C44.1974 334.118 50.9174 367.901 63.9737 399.422C74.4619 424.743 88.8739 448.205 106.643 468.961C113.862 477.393 113.929 490.071 106.08 497.92V497.92Z" fill="#EC008C"/>
<path d="M499.994 499.994C506.698 506.698 517.607 506.729 523.916 499.653C546.268 474.585 564.28 445.91 577.164 414.805C592.24 378.407 600 339.397 600 300C600 260.603 592.24 221.593 577.164 185.195C564.28 154.09 546.268 125.415 523.916 100.347C517.607 93.2706 506.698 93.3023 499.994 100.006V100.006C493.29 106.709 493.337 117.543 499.594 124.666C518.786 146.513 534.288 171.394 545.446 198.333C558.797 230.565 565.669 265.112 565.669 300C565.669 334.888 558.797 369.435 545.446 401.667C534.288 428.605 518.786 453.487 499.594 475.334C493.337 482.457 493.29 493.29 499.994 499.994V499.994Z" fill="#EC008C"/>
<path d="M448.636 449.636C455.424 456.424 466.487 456.465 472.741 449.181C488.503 430.824 501.281 410.056 510.568 387.634C522.077 359.851 528 330.073 528 300C528 269.927 522.077 240.149 510.568 212.365C501.281 189.944 488.503 169.176 472.741 150.819C466.487 143.535 455.424 143.576 448.636 150.364V150.364C441.848 157.152 441.916 168.112 448.07 175.48C460.658 190.55 470.91 207.467 478.449 225.67C488.21 249.235 493.234 274.493 493.234 300C493.234 325.507 488.21 350.765 478.449 374.33C470.91 392.533 460.658 409.45 448.07 424.52C441.916 431.888 441.848 442.848 448.636 449.636V449.636Z" fill="#FFF500"/>
<path d="M155.362 449.638C148.575 456.425 137.514 456.466 131.261 449.183C115.498 430.826 102.719 410.057 93.4316 387.634C81.9233 359.851 76 330.073 76 300C76 269.927 81.9233 240.149 93.4316 212.365C102.719 189.943 115.498 169.174 131.261 150.817C137.514 143.534 148.575 143.575 155.362 150.362V150.362C162.15 157.15 162.082 168.108 155.928 175.475C143.339 190.545 133.087 207.464 125.546 225.668C115.785 249.234 110.761 274.492 110.761 300C110.761 325.508 115.785 350.766 125.546 374.332C133.087 392.536 143.339 409.455 155.928 424.525C162.082 431.892 162.15 442.85 155.362 449.638V449.638Z" fill="#FFF500"/>
<path d="M210.672 409.328C203.963 416.037 193.009 416.086 187 408.743C176.328 395.701 167.604 381.14 161.131 365.513C152.462 344.584 148 322.153 148 299.5C148 276.847 152.462 254.416 161.131 233.487C167.604 217.86 176.328 203.299 187 190.257C193.009 182.914 203.963 182.963 210.672 189.672V189.672C217.382 196.382 217.283 207.202 211.458 214.692C203.877 224.439 197.621 235.18 192.876 246.636C185.933 263.396 182.36 281.359 182.36 299.5C182.36 317.641 185.933 335.604 192.876 352.364C197.621 363.82 203.877 374.561 211.458 384.308C217.283 391.798 217.382 402.618 210.672 409.328V409.328Z" fill="#00AEEF"/>
<path d="M393.328 409.328C400.037 416.037 410.991 416.086 417 408.743C427.672 395.701 436.396 381.14 442.869 365.513C451.538 344.584 456 322.153 456 299.5C456 276.847 451.538 254.416 442.869 233.487C436.396 217.86 427.672 203.299 417 190.257C410.991 182.914 400.037 182.963 393.328 189.672V189.672C386.618 196.382 386.717 207.202 392.542 214.692C400.123 224.439 406.379 235.18 411.124 246.636C418.067 263.396 421.64 281.359 421.64 299.5C421.64 317.641 418.067 335.604 411.124 352.364C406.379 363.82 400.123 374.561 392.542 384.308C386.717 391.798 386.618 402.618 393.328 409.328V409.328Z" fill="#00AEEF"/>
<path d="M271.067 376.933C263.569 384.431 251.274 384.502 244.981 375.968C238.842 367.642 233.72 358.584 229.743 348.983C223.311 333.454 220 316.809 220 300C220 283.191 223.311 266.546 229.743 251.017C233.72 241.416 238.842 232.358 244.981 224.032C251.274 215.498 263.569 215.569 271.067 223.067V223.067C278.565 230.565 278.352 242.644 272.619 251.565C269.744 256.04 267.266 260.774 265.22 265.712C260.718 276.582 258.4 288.234 258.4 300C258.4 311.766 260.718 323.418 265.22 334.288C267.266 339.226 269.744 343.96 272.619 348.435C278.352 357.356 278.565 369.435 271.067 376.933V376.933Z" fill="#222222"/>
<path d="M332.933 376.933C340.431 384.431 352.726 384.502 359.019 375.968C365.158 367.642 370.28 358.584 374.257 348.983C380.689 333.454 384 316.809 384 300C384 283.191 380.689 266.546 374.257 251.017C370.28 241.416 365.158 232.358 359.019 224.032C352.726 215.498 340.431 215.569 332.933 223.067V223.067C325.435 230.565 325.648 242.644 331.381 251.565C334.256 256.04 336.734 260.774 338.78 265.712C343.282 276.582 345.6 288.234 345.6 300C345.6 311.766 343.282 323.418 338.78 334.288C336.734 339.226 334.256 343.96 331.381 348.435C325.648 357.356 325.435 369.435 332.933 376.933V376.933Z" fill="#222222"/>
<rect x="359.2" y="358.313" width="32.4451" height="160.212" transform="rotate(146.966 359.2 358.313)" fill="#222222"/>
</svg>
